<svg width="180" height="104" viewBox="0 0 180 104" fill="none" xmlns="http://www.w3.org/2000/svg">
<path opacity="0.8" d="M97.5678 0L95.1984 5.05697L90 15.9489L84.8369 5.05697L82.4322 0L80.5226 5.26916L76.4558 16.6208L70.1965 6.2947L67.2613 1.48527L65.9175 6.9666L63.0884 18.7426L55.6621 9.15914L52.1611 4.63261L51.4892 10.2908L50.11 22.4204L41.3752 13.8978L37.167 9.79568L37.4145 15.666L37.945 28.0079L27.6189 21.1827L22.3851 17.6817L24.1179 23.7642L27.5835 35.9646L15.3477 32.4637L8.20432 30.4126L12.9077 36.1768L21.2534 46.3615L8.52259 49.721L0 51.9843L8.52259 54.2475L21.2534 57.6071L12.9077 67.7918L8.20432 73.556L15.3477 71.5049L27.5835 68.0039L24.1179 80.2043L22.3851 86.2868L27.6189 82.7859L37.945 75.9607L37.4145 88.3026L37.167 94.1729L41.3752 90.0707L50.11 81.5481L51.4892 93.6778L52.1611 99.336L55.6621 94.8094L63.0884 85.2259L65.9528 97.002L67.2613 102.483L70.1965 97.6739L76.4558 87.3477L80.5226 98.6994L82.4322 103.969L84.8369 98.9116L90 88.0196L95.1984 98.9116L97.5678 103.969L99.4774 98.6994L103.544 87.3477L109.839 97.6739L112.739 102.483L114.083 97.002L116.947 85.2259L124.373 94.8094L127.874 99.336L128.511 93.6778L129.925 81.5481L138.66 90.0707L142.833 94.1729L142.585 88.3026L142.055 75.9607L152.381 82.7859L157.615 86.2868L155.917 80.2043L152.416 68.0039L164.652 71.5049L171.831 73.556L167.092 67.7918L158.747 57.6071L171.477 54.2475L180 51.9843L171.477 49.721L158.747 46.3615L167.092 36.1768L171.831 30.4126L164.652 32.4637L152.416 35.9646L155.917 23.7642L157.615 17.6817L152.381 21.1827L142.055 28.0079L142.585 15.666L142.833 9.79568L138.66 13.8978L129.925 22.4204L128.511 10.2908L127.839 4.63261L124.373 9.15914L116.947 18.7426L114.083 6.9666L112.739 1.48527L109.839 6.2947L103.544 16.6208L99.4774 5.26916L97.5678 0Z" fill="#FF0000"/>
</svg>
